<?xml version="1.0" encoding="utf-8" ?>
<svg xmlns="http://www.w3.org/2000/svg" xmlns:xlink="http://www.w3.org/1999/xlink" width="34" height="26" viewBox="0 0 34 26">
	<path transform="matrix(1 0 0 1 3.18638 3.24853)" d="M9.56361 10.0407L9.56361 20.314C9.56362 20.6161 9.73173 20.8466 10.0679 21.0053C10.4041 21.164 10.7489 21.1757 11.1021 21.0403L17.4771 18.6028C17.6569 18.534 17.7995 18.4341 17.9052 18.3033C18.0108 18.1725 18.0636 18.0302 18.0636 17.8765L18.0636 10.0407L27.386 1.32909C27.5723 1.15545 27.651 0.956866 27.6221 0.733343C27.5931 0.50982 27.465 0.326892 27.2378 0.184559C27.0106 0.0422261 26.7508 -0.0177809 26.4585 0.00453797C26.1663 0.0268571 25.9272 0.124958 25.7412 0.298841L16.1787 9.23634C16.101 9.30901 16.0415 9.38956 16.0003 9.47799C15.9591 9.56642 15.9385 9.65758 15.9386 9.75147L15.9386 17.3743L11.6886 18.9993L11.6886 9.75147C11.6887 9.65758 11.6681 9.56642 11.6269 9.47799C11.5857 9.38956 11.5262 9.30901 11.4485 9.23634L3.30549 1.62647L20.1886 1.62647C20.482 1.62647 20.7324 1.54714 20.9399 1.38849C21.1474 1.22984 21.2511 1.03833 21.2511 0.813966C21.2511 0.5896 21.1474 0.398092 20.9399 0.239441C20.7324 0.0807908 20.482 0.00146565 20.1886 0.00146565L1.06361 0.00146565C0.858182 0.00136091 0.668656 0.0432889 0.49503 0.12725C0.321404 0.21121 0.190621 0.324176 0.10268 0.466146C0.0147393 0.608115 -0.0167136 0.757061 0.0083213 0.912982C0.0333562 1.0689 0.110994 1.20761 0.241236 1.32909L9.56361 10.0407Z" fill-rule="nonzero" fill="rgb(255, 255, 255)"/>
</svg>
