<?xml version="1.0" encoding="utf-8" ?>
<svg xmlns="http://www.w3.org/2000/svg" xmlns:xlink="http://www.w3.org/1999/xlink" width="24" height="22" viewBox="0 0 24 22">
	<defs>
		<clipPath id="clipPath8572912463">
			<path transform="matrix(1 0 0 1 0 0)" d="M0 0L24 0L24 22L0 22L0 0Z" fill-rule="nonzero"/>
		</clipPath>
	</defs>
	<g clip-path="url(#clipPath8572912463)">
		<path transform="matrix(1 0 0 1 13.8525 0)" d="M8.6475 8.02312L7.8975 8.02312L5.43 0.488125L5.3925 0.433125C5.38506 0.41093 5.37568 0.389448 5.36435 0.368681C5.35302 0.347914 5.33991 0.328145 5.325 0.309375C5.325 0.268125 5.265 0.240625 5.235 0.20625L5.13 0.130625C5.10835 0.115829 5.08558 0.102666 5.06168 0.0911376C5.03779 0.0796091 5.01306 0.0698549 4.9875 0.061875L4.8975 0L4.4625 0L4.4025 0C4.37694 0.00797991 4.35221 0.0177341 4.32831 0.0292627C4.30442 0.0407912 4.28165 0.0539536 4.26 0.06875C4.24211 0.0794609 4.22501 0.0911426 4.20869 0.103795C4.19238 0.116448 4.17698 0.129974 4.1625 0.144375L4.065 0.2475C4.05151 0.267032 4.03912 0.287137 4.02784 0.307814C4.01657 0.328492 4.00645 0.349637 3.9975 0.37125C3.9975 0.37125 3.9975 0.405625 3.96 0.42625L1.5 7.98875L0.75 7.98875C0.542892 7.98875 0.366116 8.05587 0.219669 8.19011C0.0732222 8.32436 -9.53674e-07 8.4864 0 8.67625C-9.53674e-07 8.8661 0.0732222 9.02814 0.219669 9.16238C0.366116 9.29663 0.542892 9.36375 0.75 9.36375L3.3975 9.36375C3.6046 9.36375 3.78138 9.29663 3.92783 9.16238C4.07428 9.02814 4.1475 8.8661 4.1475 8.67625C4.1475 8.4864 4.07428 8.32436 3.92783 8.19011C3.78138 8.05587 3.6046 7.98875 3.3975 7.98875L3.09 7.98875L3.765 5.92625L5.6475 5.92625L6.3225 7.98875L6.0225 7.98875C5.81539 7.98875 5.63861 8.05587 5.49217 8.19011C5.34572 8.32436 5.2725 8.4864 5.2725 8.67625C5.2725 8.8661 5.34572 9.02814 5.49217 9.16238C5.63861 9.29663 5.81539 9.36375 6.0225 9.36375L8.6475 9.36375C8.8546 9.36375 9.03138 9.29663 9.17783 9.16238C9.32427 9.02814 9.3975 8.8661 9.3975 8.67625C9.3975 8.4864 9.32427 8.32436 9.17783 8.19011C9.03138 8.05587 8.8546 7.98875 8.6475 7.98875L8.6475 8.02312ZM4.215 4.58562L4.71 3.08L5.205 4.58562L4.215 4.58562Z" fill-rule="nonzero" fill="rgb(255, 255, 255)"/>
		<path transform="matrix(1 0 0 1 0.734402 0)" d="M4.70309 5.72311e-15C4.49599 -2.26316e-08 4.31921 0.0671213 4.17276 0.201364C4.02632 0.335607 3.95309 0.497652 3.95309 0.6875L3.95309 19.7106L1.28309 17.3731C1.1364 17.2376 0.958903 17.1698 0.750594 17.1698C0.542286 17.1698 0.364786 17.2376 0.218094 17.3731C0.0726981 17.5072 0 17.6688 0 17.8578C0 18.0469 0.0726981 18.2084 0.218094 18.3425L4.15559 21.78C4.15559 21.8144 4.23059 21.8213 4.26809 21.8488C4.28666 21.8622 4.30597 21.8747 4.32603 21.8862C4.34609 21.8976 4.36678 21.9081 4.38809 21.9175C4.47886 21.9543 4.57386 21.9727 4.67309 21.9727C4.77233 21.9727 4.86733 21.9543 4.9581 21.9175C4.98014 21.9073 5.0018 21.8965 5.02307 21.885C5.04434 21.8736 5.06519 21.8615 5.0856 21.8488C5.0856 21.8488 5.16059 21.8075 5.19059 21.78L9.12809 18.3425C9.27349 18.2084 9.34619 18.0469 9.34619 17.8578C9.34619 17.6688 9.27349 17.5072 9.12809 17.3731C8.9814 17.2376 8.8039 17.1698 8.5956 17.1698C8.38729 17.1698 8.20979 17.2376 8.06309 17.3731L5.3931 19.7106L5.3931 0.6875C5.39372 0.507893 5.32771 0.352 5.19505 0.21982C5.06239 0.0876411 4.8984 0.0143677 4.70309 5.72311e-15Z" fill-rule="nonzero" fill="rgb(255, 255, 255)"/>
		<path transform="matrix(1 0 0 1 13.875 12.6019)" d="M8.625 6.875C8.41789 6.875 8.24112 6.94212 8.09467 7.07636C7.94822 7.21061 7.875 7.37265 7.875 7.5625L7.875 8.02312L2.4375 8.02312L9.1875 1.14813C9.28564 1.04761 9.34625 0.930737 9.36934 0.797512C9.39243 0.664288 9.37432 0.535951 9.315 0.4125C9.25571 0.28797 9.1642 0.18831 9.04045 0.113518C8.9167 0.0387258 8.78072 0.00088644 8.6325 0L0.75 0C0.542893 0 0.366117 0.0671216 0.219669 0.201365C0.0732231 0.335607 0 0.497652 0 0.6875L0 1.83563C0 2.02547 0.0732231 2.18752 0.219669 2.32176C0.366116 2.456 0.542892 2.52312 0.75 2.52313C0.957106 2.52312 1.13388 2.456 1.28033 2.32176C1.42678 2.18752 1.5 2.02547 1.5 1.83563L1.5 1.375L6.945 1.375L0.195 8.25C0.0958228 8.35073 0.0345483 8.46809 0.0111766 8.60208C-0.0121951 8.73607 0.00610351 8.86509 0.0660725 8.98915C0.126041 9.11321 0.218015 9.2123 0.341992 9.28644C0.465972 9.36058 0.601974 9.3978 0.75 9.39812L8.625 9.39812C8.83211 9.39812 9.00888 9.331 9.15533 9.19676C9.30177 9.06252 9.375 8.90047 9.375 8.71062L9.375 7.5625C9.375 7.37265 9.30177 7.2106 9.15533 7.07636C9.00888 6.94212 8.83211 6.875 8.625 6.875Z" fill-rule="nonzero" fill="rgb(255, 255, 255)"/>
	</g>
</svg>
